<mxfile host="app.diagrams.net" modified="2024-01-31T14:27:31.770Z" agent="Mozilla/5.0 (Windows NT 10.0; Win64; x64) AppleWebKit/537.36 (KHTML, like Gecko) Chrome/121.0.0.0 Safari/537.36" etag="IKQtXE6H_ZhqJQECyb4T" version="23.0.2" type="device">
  <diagram name="PÃ¡gina-1" id="2xAqyFswCU1l5ppWy6Fw">
    <mxGraphModel dx="1434" dy="746" grid="1" gridSize="10" guides="1" tooltips="1" connect="1" arrows="1" fold="1" page="1" pageScale="1" pageWidth="1169" pageHeight="827" math="0" shadow="0">
      <root>
        <mxCell id="0" />
        <mxCell id="1" parent="0" />
        <mxCell id="9ORfOQSp7KBW4myFSy84-25" style="edgeStyle=orthogonalEdgeStyle;rounded=0;orthogonalLoop=1;jettySize=auto;html=1;exitX=1;exitY=0.5;exitDx=0;exitDy=0;entryX=0;entryY=0.5;entryDx=0;entryDy=0;strokeWidth=3;" edge="1" parent="1" source="9ORfOQSp7KBW4myFSy84-2" target="9ORfOQSp7KBW4myFSy84-3">
          <mxGeometry relative="1" as="geometry" />
        </mxCell>
        <mxCell id="9ORfOQSp7KBW4myFSy84-2" value="" style="rounded=0;whiteSpace=wrap;html=1;" vertex="1" parent="1">
          <mxGeometry x="40" y="160" width="160" height="120" as="geometry" />
        </mxCell>
        <mxCell id="9ORfOQSp7KBW4myFSy84-26" style="edgeStyle=orthogonalEdgeStyle;rounded=0;orthogonalLoop=1;jettySize=auto;html=1;exitX=1;exitY=0.5;exitDx=0;exitDy=0;entryX=0;entryY=0.5;entryDx=0;entryDy=0;strokeWidth=3;" edge="1" parent="1" source="9ORfOQSp7KBW4myFSy84-3" target="9ORfOQSp7KBW4myFSy84-14">
          <mxGeometry relative="1" as="geometry" />
        </mxCell>
        <mxCell id="9ORfOQSp7KBW4myFSy84-3" value="" style="rounded=0;whiteSpace=wrap;html=1;" vertex="1" parent="1">
          <mxGeometry x="280" y="160" width="160" height="120" as="geometry" />
        </mxCell>
        <mxCell id="9ORfOQSp7KBW4myFSy84-11" value="" style="ellipse;whiteSpace=wrap;html=1;aspect=fixed;fillColor=#000000;" vertex="1" parent="1">
          <mxGeometry x="115" y="215" width="10" height="10" as="geometry" />
        </mxCell>
        <mxCell id="9ORfOQSp7KBW4myFSy84-12" value="" style="shape=mxgraph.signs.transportation.train_3;html=1;pointerEvents=1;fillColor=#000000;strokeColor=none;verticalLabelPosition=bottom;verticalAlign=top;align=center;" vertex="1" parent="1">
          <mxGeometry x="300" y="207" width="40" height="26" as="geometry" />
        </mxCell>
        <mxCell id="9ORfOQSp7KBW4myFSy84-13" value="" style="sketch=0;pointerEvents=1;shadow=0;dashed=0;html=1;strokeColor=none;fillColor=#434445;aspect=fixed;labelPosition=center;verticalLabelPosition=bottom;verticalAlign=top;align=center;outlineConnect=0;shape=mxgraph.vvd.cd;" vertex="1" parent="1">
          <mxGeometry x="390" y="207" width="30" height="30" as="geometry" />
        </mxCell>
        <mxCell id="9ORfOQSp7KBW4myFSy84-27" style="rounded=0;orthogonalLoop=1;jettySize=auto;html=1;exitX=1;exitY=0.5;exitDx=0;exitDy=0;entryX=0;entryY=0.5;entryDx=0;entryDy=0;strokeWidth=3;" edge="1" parent="1" source="9ORfOQSp7KBW4myFSy84-14" target="9ORfOQSp7KBW4myFSy84-17">
          <mxGeometry relative="1" as="geometry" />
        </mxCell>
        <mxCell id="9ORfOQSp7KBW4myFSy84-28" style="rounded=0;orthogonalLoop=1;jettySize=auto;html=1;exitX=1;exitY=0.5;exitDx=0;exitDy=0;entryX=0;entryY=0.5;entryDx=0;entryDy=0;strokeWidth=3;" edge="1" parent="1" source="9ORfOQSp7KBW4myFSy84-14" target="9ORfOQSp7KBW4myFSy84-22">
          <mxGeometry relative="1" as="geometry" />
        </mxCell>
        <mxCell id="9ORfOQSp7KBW4myFSy84-14" value="" style="rounded=0;whiteSpace=wrap;html=1;" vertex="1" parent="1">
          <mxGeometry x="520" y="160" width="160" height="120" as="geometry" />
        </mxCell>
        <mxCell id="9ORfOQSp7KBW4myFSy84-15" value="" style="shape=mxgraph.signs.transportation.train_3;html=1;pointerEvents=1;fillColor=#000000;strokeColor=none;verticalLabelPosition=bottom;verticalAlign=top;align=center;" vertex="1" parent="1">
          <mxGeometry x="540" y="207" width="40" height="26" as="geometry" />
        </mxCell>
        <mxCell id="9ORfOQSp7KBW4myFSy84-16" value="" style="sketch=0;pointerEvents=1;shadow=0;dashed=0;html=1;strokeColor=none;fillColor=#434445;aspect=fixed;labelPosition=center;verticalLabelPosition=bottom;verticalAlign=top;align=center;outlineConnect=0;shape=mxgraph.vvd.cd;" vertex="1" parent="1">
          <mxGeometry x="630" y="207" width="30" height="30" as="geometry" />
        </mxCell>
        <mxCell id="9ORfOQSp7KBW4myFSy84-17" value="" style="rounded=0;whiteSpace=wrap;html=1;" vertex="1" parent="1">
          <mxGeometry x="760" y="80" width="160" height="120" as="geometry" />
        </mxCell>
        <mxCell id="9ORfOQSp7KBW4myFSy84-18" value="" style="ellipse;whiteSpace=wrap;html=1;aspect=fixed;fillColor=#000000;" vertex="1" parent="1">
          <mxGeometry x="835" y="135" width="10" height="10" as="geometry" />
        </mxCell>
        <mxCell id="9ORfOQSp7KBW4myFSy84-22" value="" style="rounded=0;whiteSpace=wrap;html=1;" vertex="1" parent="1">
          <mxGeometry x="760" y="240" width="160" height="120" as="geometry" />
        </mxCell>
        <mxCell id="9ORfOQSp7KBW4myFSy84-23" value="" style="shape=mxgraph.signs.transportation.train_3;html=1;pointerEvents=1;fillColor=#000000;strokeColor=none;verticalLabelPosition=bottom;verticalAlign=top;align=center;" vertex="1" parent="1">
          <mxGeometry x="780" y="287" width="40" height="26" as="geometry" />
        </mxCell>
        <mxCell id="9ORfOQSp7KBW4myFSy84-24" value="" style="sketch=0;pointerEvents=1;shadow=0;dashed=0;html=1;strokeColor=none;fillColor=#434445;aspect=fixed;labelPosition=center;verticalLabelPosition=bottom;verticalAlign=top;align=center;outlineConnect=0;shape=mxgraph.vvd.cd;" vertex="1" parent="1">
          <mxGeometry x="870" y="287" width="30" height="30" as="geometry" />
        </mxCell>
        <mxCell id="9ORfOQSp7KBW4myFSy84-29" value="&lt;font style=&quot;font-size: 24px;&quot;&gt;Drift correction&lt;/font&gt;" style="text;html=1;strokeColor=none;fillColor=none;align=center;verticalAlign=middle;whiteSpace=wrap;rounded=0;" vertex="1" parent="1">
          <mxGeometry x="40" y="120" width="160" height="30" as="geometry" />
        </mxCell>
        <mxCell id="9ORfOQSp7KBW4myFSy84-30" value="&lt;font style=&quot;font-size: 24px;&quot;&gt;Preview&lt;/font&gt;" style="text;html=1;strokeColor=none;fillColor=none;align=center;verticalAlign=middle;whiteSpace=wrap;rounded=0;" vertex="1" parent="1">
          <mxGeometry x="280" y="120" width="160" height="30" as="geometry" />
        </mxCell>
        <mxCell id="9ORfOQSp7KBW4myFSy84-31" value="&lt;font style=&quot;font-size: 24px;&quot;&gt;Audio&lt;/font&gt;" style="text;html=1;strokeColor=none;fillColor=none;align=center;verticalAlign=middle;whiteSpace=wrap;rounded=0;" vertex="1" parent="1">
          <mxGeometry x="520" y="120" width="160" height="30" as="geometry" />
        </mxCell>
        <mxCell id="9ORfOQSp7KBW4myFSy84-32" value="&lt;font style=&quot;font-size: 24px;&quot;&gt;New trial&lt;/font&gt;" style="text;html=1;strokeColor=none;fillColor=none;align=center;verticalAlign=middle;whiteSpace=wrap;rounded=0;" vertex="1" parent="1">
          <mxGeometry x="760" y="50" width="160" height="30" as="geometry" />
        </mxCell>
        <mxCell id="9ORfOQSp7KBW4myFSy84-33" value="&lt;span style=&quot;font-size: 24px;&quot;&gt;Response&lt;/span&gt;" style="text;html=1;strokeColor=none;fillColor=none;align=center;verticalAlign=middle;whiteSpace=wrap;rounded=0;" vertex="1" parent="1">
          <mxGeometry x="760" y="360" width="160" height="30" as="geometry" />
        </mxCell>
      </root>
    </mxGraphModel>
  </diagram>
</mxfile>
